<svg viewBox="0 0 200 200" xmlns="http://www.w3.org/2000/svg">
  <path fill="#39244f" d="M64.6,2.4C64.6,32.2,32.3,64.3,-0.4,64.3C-33.1,64.3,-66.2,32.2,-66.2,2.4C-66.2,-27.4,-33.1,-54.8,-0.4,-54.8C32.3,-54.8,64.6,-27.4,64.6,2.4Z" transform="translate(0 100)" />
  <path fill="#c17541" d="M68.4,-27.6C73.9,-5.2,53.5,20.1,28.5,38C3.6,55.8,-25.9,66,-40.1,55.6C-54.2,45.3,-53,14.2,-43.8,-13.3C-34.5,-40.8,-17.3,-64.9,7.1,-67.2C31.4,-69.5,62.9,-50,68.4,-27.6Z" transform="translate(100 50) scale(0.5 0.5)" />
  <path fill="#8C2155" d="M46.5,-30C55.6,-11.2,54.9,10,45.5,27.1C36.1,44.2,18.1,57.1,-3.6,59.2C-25.3,61.3,-50.7,52.6,-59.9,35.6C-69.2,18.6,-62.4,-6.8,-49.7,-27.7C-37.1,-48.6,-18.5,-65.1,0.1,-65.2C18.7,-65.3,37.5,-48.9,46.5,-30Z" transform="translate(75 120)" />
</svg>